Patient4_TMGait_0pt8_01_left_35_GRF.mot
version=1
nRows=45
nColumns=19
inDegrees=no
endheader
time	F1x	F1y	F1z	M1x	M1y	M1z	F2x	F2y	F2z	M2x	M2y	M2z	EC1x	EC1y	EC1z	EC2x	EC2y	EC2z
38.61	20.8692	3.6812	-6.6071	1.4479	7.5842	2.7455	-59.0295	740.7816	-55.9843	276.5949	90.6209	847.8282	-0.0592	0.0182	-0.0073	-0.0462	0.0165	0.9585
38.6213	13.8587	3.4809	-4.4576	0.63587	4.9859	3.0937	-52.5075	743.742	-57.3867	277.8553	89.1809	849.6599	-0.0592	0.0182	-0.0073	-0.0462	0.0165	0.9585
38.6326	8.0142	3.307	-2.6375	-0.061124	2.8269	3.3978	-46.3412	747.3319	-58.4665	279.3361	87.4082	850.9183	-0.0592	0.0182	-0.0073	-0.0462	0.0165	0.9585
38.6439	3.6087	3.1905	-1.2491	-0.60418	1.2024	3.6707	-40.7089	751.2345	-59.1348	280.8976	85.323	851.2807	-0.0592	0.0182	-0.0073	-0.0462	0.0165	0.9585
38.6551	0.59679	3.1166	-0.28536	-0.98936	0.091694	3.8605	-35.5647	755.0451	-59.3893	282.3808	82.9417	850.4862	-0.0592	0.0182	-0.0073	-0.0462	0.0165	0.9585
38.6664	-1.2613	3.0894	0.3177	-1.2385	-0.59758	4.0005	-30.7323	758.3378	-59.2939	283.6262	80.2911	848.2846	-0.0592	0.0182	-0.0073	-0.0462	0.0165	0.9585
38.6777	-2.242	3.0658	0.65243	-1.3734	-0.97699	4.0324	-26.0514	760.7588	-58.9529	284.5001	77.4351	844.5315	-0.0592	0.0182	-0.0073	-0.0462	0.0165	0.9585
38.689	-2.6694	3.0212	0.80375	-1.4174	-1.1624	3.9589	-21.3836	762.059	-58.4567	284.9107	74.4333	839.169	-0.0592	0.0182	-0.0073	-0.0462	0.0165	0.9585
38.7003	-2.7462	2.8763	0.857	-1.3728	-1.2459	3.7101	-16.6803	762.1795	-57.9388	284.8313	71.409	832.3282	-0.0592	0.0182	-0.0073	-0.0462	0.0165	0.9585
38.7116	-2.7018	2.5895	0.86092	-1.2423	-1.3018	3.2649	-11.8935	761.2658	-57.4661	284.3161	68.4172	824.3214	-0.0592	0.0182	-0.0073	-0.0462	0.0165	0.9585
38.7229	-2.6123	2.0637	0.86271	-1.0073	-1.3762	2.5147	-7.0335	759.695	-57.1173	283.5018	65.5345	815.6943	-0.0592	0.0182	-0.0073	-0.0462	0.0165	0.9585
38.7341	-2.5704	1.2423	0.88341	-0.65399	-1.4972	1.4185	-2.1462	757.9654	-56.9173	282.5709	62.7998	807.0784	-0.0592	0.0182	-0.0073	-0.0462	0.0165	0.9585
38.7454	-2.5532	0.042745	0.93832	-0.15872	-1.6615	-0.14536	2.6581	756.5673	-56.9155	281.7006	60.2969	799.0841	-0.0592	0.0182	-0.0073	-0.0462	0.0165	0.9585
38.7567	-2.5297	-1.5683	1.0174	0.48967	-1.8305	-2.1933	7.2521	755.8403	-57.1569	281.0117	58.1169	792.1346	-0.0592	0.0182	-0.0073	-0.0462	0.0165	0.9585
38.768	-2.3735	-3.5677	1.0812	1.2778	-1.9104	-4.7219	11.4454	755.861	-57.6847	280.5265	56.3698	786.3662	-0.0592	0.0182	-0.0073	-0.0462	0.0165	0.9585
38.7793	-1.9786	-5.7774	1.0768	2.1362	-1.7864	-7.49	15.0879	756.4386	-58.536	280.1692	55.1495	781.6272	-0.0592	0.0182	-0.0073	-0.0462	0.0165	0.9585
38.7906	-1.1037	-7.8069	0.90023	2.9111	-1.2521	-10.0312	18.0598	757.2305	-59.6686	279.8137	54.4641	777.5887	-0.0592	0.0182	-0.0073	-0.0462	0.0165	0.9585
38.8019	0.42813	-8.9575	0.44543	3.3349	-0.096422	-11.4585	20.3202	757.8611	-61.0244	279.3299	54.2824	773.8438	-0.0592	0.0182	-0.0073	-0.0462	0.0165	0.9585
38.8131	2.8923	-8.1592	-0.43903	2.9963	1.9636	-10.4411	21.9257	757.9502	-62.4845	278.5987	54.479	769.9589	-0.0592	0.0182	-0.0073	-0.0462	0.0165	0.9585
38.8244	6.4235	-3.9074	-1.8884	1.3261	5.1562	-5.0592	23.0337	757.1193	-63.9362	277.509	54.8971	765.485	-0.0592	0.0182	-0.0073	-0.0462	0.0165	0.9585
38.8357	11.0652	5.6545	-4.0216	-2.379	9.6379	7.0171	23.874	754.9837	-65.248	275.9556	55.3319	759.9528	-0.0592	0.0182	-0.0073	-0.0462	0.0165	0.9585
38.847	16.5532	22.6233	-6.877	-8.8994	15.3468	28.475	24.7356	751.1203	-66.2776	273.8222	55.5501	752.8349	-0.0592	0.0182	-0.0073	-0.0462	0.0165	0.9585
38.8583	22.2085	48.9037	-10.3295	-18.943	21.8527	61.7203	25.8639	745.0284	-66.8678	270.9611	55.3119	743.5507	-0.0592	0.0182	-0.0073	-0.0462	0.0165	0.9585
38.8696	26.6792	85.643	-14.0031	-32.9144	28.1443	108.2485	27.4444	736.0133	-66.841	267.1477	54.3775	731.3715	-0.0592	0.0182	-0.0073	-0.0462	0.0165	0.9585
38.8809	27.9586	132.3539	-17.1135	-50.5974	32.474	167.4804	29.5322	723.1489	-66.0232	262.0639	52.557	715.4018	-0.0592	0.0182	-0.0073	-0.0462	0.0165	0.9585
38.8921	24.1463	186.7631	-18.67	-71.0775	32.8932	236.6136	32.0599	705.3101	-64.269	255.3096	49.7323	694.5847	-0.0592	0.0182	-0.0073	-0.0462	0.0165	0.9585
38.9034	15.0415	244.8931	-17.6122	-92.7746	27.9665	310.6041	34.8185	681.329	-61.4568	246.4571	45.8637	667.8778	-0.0592	0.0182	-0.0073	-0.0462	0.0165	0.9585
38.9147	2.8092	301.2727	-12.8041	-113.5633	17.1647	382.339	37.5431	650.1346	-57.5575	235.1076	41.0281	634.3553	-0.0592	0.0182	-0.0073	-0.0462	0.0165	0.9585
38.926	-9.8302	350.918	-4.3807	-131.6115	1.7737	445.0787	39.9013	611.0351	-52.6674	220.9894	35.4444	593.4771	-0.0592	0.0182	-0.0073	-0.0462	0.0165	0.9585
38.9373	-21.162	392.2048	6.2474	-146.3732	-15.777	496.4496	41.5511	563.9781	-46.9614	204.0513	29.4066	545.3239	-0.0592	0.0182	-0.0073	-0.0462	0.0165	0.9585
38.9486	-30.3567	426.409	17.6664	-158.4216	-33.3581	537.919	42.1387	509.6375	-40.7195	184.5026	23.3057	490.6813	-0.0592	0.0182	-0.0073	-0.0462	0.0165	0.9585
38.9599	-37.1659	456.3199	28.4723	-168.8925	-49.1587	573.0072	41.3649	449.3975	-34.2228	162.814	17.5029	430.9723	-0.0592	0.0182	-0.0073	-0.0462	0.0165	0.9585
38.9711	-41.6905	484.5391	37.6867	-178.841	-61.9961	605.0613	39.029	385.2257	-27.7495	139.6765	12.3149	368.13	-0.0592	0.0182	-0.0073	-0.0462	0.0165	0.9585
38.9824	-44.1806	512.7387	44.6214	-188.9456	-71.1556	636.1895	35.1136	319.5968	-21.5655	115.9755	7.9832	304.502	-0.0592	0.0182	-0.0073	-0.0462	0.0165	0.9585
38.9937	-44.8028	541.5665	49.2613	-199.4513	-76.6977	667.2481	29.7828	255.3565	-15.9403	92.7392	4.6824	242.7436	-0.0592	0.0182	-0.0073	-0.0462	0.0165	0.9585
39.005	-43.8534	571.0762	51.9383	-210.3404	-79.1784	698.3742	23.5113	195.4647	-11.1136	71.0409	2.4507	185.5607	-0.0592	0.0182	-0.0073	-0.0462	0.0165	0.9585
39.0163	-41.6292	600.948	53.296	-221.425	-79.5136	729.281	17.0218	142.4884	-7.2478	51.8168	1.1634	135.2502	-0.0592	0.0182	-0.0073	-0.0462	0.0165	0.9585
39.0276	-38.4682	630.5769	53.9848	-232.4039	-78.6398	759.413	11.1045	98.0667	-4.3673	35.6755	0.5569	93.2084	-0.0592	0.0182	-0.0073	-0.0462	0.0165	0.9585
39.0389	-34.7618	659.0998	54.5962	-242.8865	-77.4315	787.85	6.271	62.7465	-2.3396	22.8349	0.3301	59.8416	-0.0592	0.0182	-0.0073	-0.0462	0.0165	0.9585
39.0501	-30.9318	685.455	55.6498	-252.427	-76.6537	813.4944	2.6885	36.1825	-1.0052	13.1827	0.28891	34.7563	-0.0592	0.0182	-0.0073	-0.0462	0.0165	0.9585
39.0614	-27.2825	708.8018	57.2952	-260.6886	-76.6085	835.4539	0.27841	17.4909	-0.18904	6.398	0.31295	17.0981	-0.0592	0.0182	-0.0073	-0.0462	0.0165	0.9585
39.0727	-24.0077	728.7404	59.4164	-267.5235	-77.2248	853.3375	-1.1256	5.4321	0.24275	2.0274	0.34969	5.7012	-0.0592	0.0182	-0.0073	-0.0462	0.0165	0.9585
39.084	-21.0431	745.2108	61.6206	-272.9351	-78.0484	867.119	-1.779	-1.4132	0.41207	-0.44749	0.38093	-0.76578	-0.0592	0.0182	-0.0073	-0.0462	0.0165	0.9585
39.0953	-18.3298	758.2181	63.5389	-276.9545	-78.6378	876.8331	-1.9321	-4.4968	0.4137	-1.5562	0.40992	-3.6719	-0.0592	0.0182	-0.0073	-0.0462	0.0165	0.9585
39.1066	-15.7818	767.6414	64.9717	-279.5672	-78.7382	882.3857	-1.793	-5.1347	0.33281	-1.7774	0.42613	-4.2668	-0.0592	0.0182	-0.0073	-0.0462	0.0165	0.9585
